<svg width="18" height="18" viewBox="0 0 18 18" fill="none" xmlns="http://www.w3.org/2000/svg">
<path d="M9 17.0625C4.5525 17.0625 0.9375 13.4475 0.9375 9C0.9375 4.5525 4.5525 0.9375 9 0.9375C13.4475 0.9375 17.0625 4.5525 17.0625 9C17.0625 13.4475 13.4475 17.0625 9 17.0625ZM9 2.0625C5.175 2.0625 2.0625 5.175 2.0625 9C2.0625 12.825 5.175 15.9375 9 15.9375C12.825 15.9375 15.9375 12.825 15.9375 9C15.9375 5.175 12.825 2.0625 9 2.0625Z" fill="#141414" style="fill:#141414;fill:color(display-p3 0.0784 0.0784 0.0784);fill-opacity:1;"/>
<path d="M6.87801 11.685C6.73551 11.685 6.59301 11.6325 6.48051 11.52C6.26301 11.3025 6.26301 10.9425 6.48051 10.725L10.7255 6.48002C10.943 6.26252 11.303 6.26252 11.5205 6.48002C11.738 6.69752 11.738 7.05752 11.5205 7.27502L7.27551 11.52C7.17051 11.6325 7.02051 11.685 6.87801 11.685Z" fill="#101010" style="fill:#101010;fill:color(display-p3 0.0625 0.0625 0.0625);fill-opacity:1;"/>
<path d="M11.123 11.685C10.9805 11.685 10.838 11.6325 10.7255 11.52L6.48051 7.27502C6.26301 7.05752 6.26301 6.69752 6.48051 6.48002C6.69801 6.26252 7.05801 6.26252 7.27551 6.48002L11.5205 10.725C11.738 10.9425 11.738 11.3025 11.5205 11.52C11.408 11.6325 11.2655 11.685 11.123 11.685Z" fill="#101010" style="fill:#101010;fill:color(display-p3 0.0625 0.0625 0.0625);fill-opacity:1;"/>
</svg>
